<?xml version="1.0" encoding="iso-8859-1"?>
<!-- Generator: Adobe Illustrator 19.0.0, SVG Export Plug-In . SVG Version: 6.00 Build 0)  -->
<svg xmlns="http://www.w3.org/2000/svg" xmlns:xlink="http://www.w3.org/1999/xlink" version="1.1" id="Capa_1" x="0px" y="0px" viewBox="0 0 512.001 512.001" style="enable-background:new 0 0 512.001 512.001;" xml:space="preserve" width="512px" height="512px">
<g>
	<g>
		<path d="M504.344,84.523c4.229,0,7.657-3.427,7.657-7.657V37.635c0-4.229-3.427-7.657-7.657-7.657h-185.98v-18.99    c0-4.23-3.427-7.657-7.657-7.657H205.735c-4.23,0-7.657,3.427-7.657,7.657V29.98h-84.622c-4.23,0-7.657,3.427-7.657,7.657    c0,4.229,3.427,7.657,7.657,7.657h383.231v23.918H19.755v-23.92h30.829c4.229,0,7.657-3.427,7.657-7.657    c0-4.229-3.427-7.657-7.657-7.657H12.099c-4.23,0-7.657,3.427-7.657,7.657v39.232c0,4.23,3.427,7.657,7.657,7.657h7.518v22.947    c0,4.23,3.427,7.657,7.657,7.657c4.229,0,7.657-3.427,7.657-7.657V85.264h445.102v218.595H191.955h-64.199H34.93V170.586    c0-4.23-3.427-7.657-7.657-7.657s-7.657,3.427-7.657,7.657v133.273h-7.518c-4.23,0-7.657,3.427-7.657,7.657v39.233    c0,4.229,3.427,7.657,7.657,7.657h40.084L0.475,498.358c-0.869,2.35-0.532,4.975,0.899,7.031c1.431,2.055,3.778,3.28,6.283,3.28    h23.687c3.206,0,6.071-1.997,7.182-5.002l53.668-145.262h151.708v58.92c-5.908,5.366-9.623,13.104-9.623,21.694    c0,16.161,13.148,29.309,29.309,29.309s29.308-13.148,29.308-29.309c0-8.591-3.715-16.329-9.623-21.695v-58.919h136.533    l53.668,145.262c1.111,3.005,3.977,5.002,7.182,5.002h23.687c2.504,0,4.851-1.225,6.283-3.28c1.431-2.056,1.767-4.681,0.899-7.031    l-51.707-139.954h44.524c4.229,0,7.657-3.427,7.657-7.657v-39.233c0-4.23-3.427-7.657-7.657-7.657h-8.997V84.523H504.344z     M303.051,27.714h-89.659v-9.07h89.659V27.714z M26.01,493.356h-7.362l49.859-134.951h7.362L26.01,493.356z M263.588,453.013    c-7.718,0-13.995-6.277-13.995-13.995c0-7.717,6.277-13.994,13.995-13.994c7.717,0,13.994,6.277,13.994,13.994    C277.583,446.736,271.304,453.013,263.588,453.013z M259.216,409.71v-51.307h8.744v51.307H259.216z M493.352,493.356h-7.362    l-49.859-134.951h7.363L493.352,493.356z M496.687,319.172v23.919h-47.859H425.14H275.616h-24.057H86.86H63.173H19.755v-23.919    h7.518h100.483h64.199H487.69H496.687z" fill="#FFFFFF"/>
	</g>
</g>
<g>
	<g>
		<path d="M258.222,99.815c-4.23,0-7.657,3.427-7.657,7.657v38.613c0,4.229,3.427,7.657,7.657,7.657c4.23,0,7.657-3.427,7.657-7.657    v-38.613C265.878,103.242,262.451,99.815,258.222,99.815z" fill="#FFFFFF"/>
	</g>
</g>
<g>
	<g>
		<path d="M258.222,232.347c-4.23,0-7.657,3.427-7.657,7.657v38.614c0,4.23,3.427,7.657,7.657,7.657c4.23,0,7.657-3.427,7.657-7.657    v-38.614C265.878,235.774,262.451,232.347,258.222,232.347z" fill="#FFFFFF"/>
	</g>
</g>
<g>
	<g>
		<path d="M343.794,185.387h-38.613c-4.23,0-7.657,3.427-7.657,7.657c0,4.229,3.427,7.657,7.657,7.657h38.613    c4.229,0,7.657-3.427,7.657-7.657C351.451,188.815,348.024,185.387,343.794,185.387z" fill="#FFFFFF"/>
	</g>
</g>
<g>
	<g>
		<path d="M211.262,185.387h-38.614c-4.23,0-7.657,3.427-7.657,7.657c0,4.229,3.427,7.657,7.657,7.657h38.614    c4.23,0,7.657-3.427,7.657-7.657C218.919,188.815,215.491,185.387,211.262,185.387z" fill="#FFFFFF"/>
	</g>
</g>
<g>
</g>
<g>
</g>
<g>
</g>
<g>
</g>
<g>
</g>
<g>
</g>
<g>
</g>
<g>
</g>
<g>
</g>
<g>
</g>
<g>
</g>
<g>
</g>
<g>
</g>
<g>
</g>
<g>
</g>
</svg>
